<?xml version="1.0" encoding="UTF-8"?>
<svg width="1024" height="1024" version="1.1" viewBox="0 0 1024 1024" xmlns="http://www.w3.org/2000/svg">
 <g>
  <circle cx="512" cy="512" r="500" fill="#ff59a1"/>
  <circle cx="512" cy="558.36" r="324" stroke-width="27.147"/>
  <circle cx="512" cy="512" r="374.3"/>
  <path d="m512 256.24a179.03 179.03 0 0 0-179.03 179.03c0 60.871 30.435 114.33 76.728 146.81v57.803a25.576 25.576 0 0 0 25.576 25.576h153.46a25.576 25.576 0 0 0 25.576-25.576v-57.803c46.293-32.481 76.728-85.937 76.728-146.81a179.03 179.03 0 0 0-179.03-179.03zm-76.728 460.37v25.576a25.576 25.576 0 0 0 25.576 25.576h102.3a25.576 25.576 0 0 0 25.576-25.576v-25.576z" fill="#f4ff59" stroke-width="25.576"/>
  <rect x="-772.16" y="509.12"/>
 </g>
</svg>
